<svg xmlns="http://www.w3.org/2000/svg" viewBox="274 123.9 1143.7 595"><style>.st3{fill:#110f0d}.st4{fill:#44c0b2}.st5{fill:#fff}</style><g id="Layer_2"><g id="g12_1_"><path class="st5" d="M277.4 367.2h68.5v151.9h1.4c6.8-13.3 14.1-25.5 20.9-37.7l69.4-114.2h84.9L421.3 513.6l106.6 197.3h-80.8l-74.9-148.4-26.3 36.2v112.2h-68.5V367.2zM599.2 610.9c2.3 32.1 30.4 47.4 62.6 47.4 23.6 0 42.7-3.6 61.3-10.2l9.1 52.5c-22.7 10.2-50.4 15.8-80.3 15.8-75.3 0-118.4-49.5-118.4-127.5 0-63.2 34.9-133.1 112.1-133.1 71.7 0 98.9 62.7 98.9 124.4 0 13.3-1.4 25-2.3 30.6h-143zm81.2-53c0-18.9-7.3-50.5-39-50.5-29 0-40.8 29.6-42.7 50.5h81.7zM871.9 390.2v71.4h49.5v57.1h-49.5v90.2c0 30.1 6.3 43.8 27.2 43.8 8.6 0 15.4-1 20.4-2l.5 58.6c-9.1 4.1-25.4 7.1-44.9 7.1-22.2 0-40.8-9.2-51.7-21.9-12.7-14.8-19.1-38.8-19.1-73.9v-102h-29.5v-57.1h29.5v-54l67.6-17.3zM1047.5 390.2v71.4h49.5v57.1h-49.5v90.2c0 30.1 6.3 43.8 27.2 43.8 8.6 0 15.4-1 20.4-2l.5 58.6c-9.1 4.1-25.4 7.1-44.9 7.1-22.2 0-40.8-9.2-51.7-21.9-12.7-14.8-19.1-38.8-19.1-73.9v-102h-29.5v-57.1h29.5v-54l67.6-17.3zM1353.8 586c0 93.3-63.5 130.5-118.9 130.5-63.1 0-113-48.4-113-130 0-84.1 53.1-130.5 118.4-130.5 66.8-.1 113.5 49.4 113.5 130zm-160.6 1c0 39.8 14.1 73.9 44.9 73.9 30.4 0 44.5-33.7 44.5-73.9 0-35.7-10.4-76-44.5-76-34 0-44.9 40.8-44.9 76z"/><g><path class="st5" d="M1292.9 335.1c-.4-.6-.9-1.3-1.3-1.9 5.8-48 74-51.3 74-93.3 0 28.8-62.6 17.6-98.6 41-1.2-6.5-1.7-13.3-1.5-21 0-64.5 63.1-89.3 63.1-134.4 0 45.2-104.7 54.5-117.1 130.7-11.8-9.9-24.4-16.4-39.4-16.4-24.4 0-36.9 24.1-36.9 24.1s21.7-7 29 18.3c6.1 21.5 23.1 114.1 250.4 90.2 0 0-69.7-5.6-121.7-37.3zM1148.5 414.2c-.2-.2-.3-.5-.4-.7 2.1-17.7 26.4-19.5 27.9-34-2 9.2-24.2 5.7-37.3 14.1-.5-2.5-.6-5.1-.6-8 0-24.5 24-33.9 24-51 0 17.2-39.8 20.7-44.5 49.7-4.5-3.7-9.3-6.3-15-6.3-9.3 0-14 9.1-14 9.1s8.3-2.7 11 6.9c2.3 8.2 8.8 43.3 95.1 34.3 0 .1-26.4-2-46.2-14.1z"/><path class="st5" d="M1176 379.5c.1-.4.2-.9.2-1.4-.1.5-.2 1-.2 1.4z"/></g></g></g></svg>